<svg id="logosandtypes_com" xmlns="http://www.w3.org/2000/svg" viewBox="0 0 150 150.2"><path d="M0 .2h150v150H0V.2z" fill="none"/><path d="M142.1 129.7L75.4 8c-.1-.3-.5-.4-.8-.3-.1.1-.2.1-.3.3L8.2 129.1c-.2.4 0 .9.3 1.1.1.1.2.1.4.1h34.4l8.3-14.8c.4-.7 1.3-.9 2-.5h.1l20.9 14.4L95.5 115c.7-.5 1.6-.3 2 .4l10 15.4h33.9c.4 0 .8-.4.8-.8 0 0-.1-.2-.1-.3z" fill="#474749"/><path d="M75 110s3.4-2.9 10.7-7.3c7.3-4.4 12.1-11.4 12.4-17.8.3-5.2-4.5-15.1-6.3-18.6-.1-.2-.4-.3-.6-.2-.1.1-.2.2-.2.3-.5 2.7-2.1 8.4-8.1 10.7-.1 0 2.9-6.3 1.2-10.9-1.7-4.5-9-13.9-8-20.4 0-.2-.1-.3-.2-.3h-.2c-1.5.7-5.9 3.5-7.8 10.9-2.3 9.1 1.2 17.8-5.1 21.9 0-.1-1.2-8-5.9-10.6-.1-.1-.2 0-.3.1v.1c-.1 2.6-.6 5.1-1.6 7.5-1.7 4.3-6 9.2-2.4 16.4 5.3 10.7 17.4 13 22.4 18.2z" fill="#f16b27"/><path d="M91.7 66.3c-.1-.2-.4-.3-.6-.2-.1.1-.2.2-.2.3-.5 2.7-2.1 8.4-8.1 10.7-.1 0 2.9-6.3 1.2-10.9-1.7-4.4-8.8-13.5-8.1-20 0-.3-.2-.5-.4-.5h-.2c-.1 0-.1.1-.1.2V110c.5-.6 4.1-3.3 10.6-7.2 7.3-4.4 12.1-11.4 12.4-17.8.1-5.3-4.7-15.2-6.5-18.7z" fill="#d05f28"/></svg>